<svg xmlns="http://www.w3.org/2000/svg" width="300" height="300" viewBox="100 100 300 300">
  <title>
    Tokyo JS Logo
  </title>
  <circle cx="250" cy="250" r="120" stroke="gold" stroke-width="60" fill="#fff"/>
  <path d="M240.754 208.37v48.355c0 3.8-.49 7.236-1.472 10.307-.98 3.07-2.47 5.715-4.464 7.932-1.996 2.217-4.466 3.927-7.41 5.13-2.945 1.203-6.413 1.805-10.404 1.805-3.99 0-7.52-.94-10.59-2.81-3.072-1.87-5.685-4.45-7.84-7.74l10.735-11.31c1.07 1.45 2.28 2.83 3.61 4.13 1.33 1.3 2.63 1.95 3.89 1.95 1.39 0 2.45-.37 3.18-1.1.73-.73 1.25-1.63 1.56-2.71.31-1.08.49-2.22.52-3.42.03-1.21.05-2.31.05-3.33v-47.21zm51.042 18.43c-1.71-1.457-3.626-2.613-5.747-3.467-2.13-.854-4.33-1.282-6.61-1.282-.89 0-1.79.13-2.71.38-.92.26-1.78.64-2.57 1.14-.79.51-1.44 1.13-1.95 1.86-.51.73-.76 1.6-.76 2.61 0 1.08.28 1.98.85 2.71s1.26 1.36 2.09 1.9c.82.54 1.71.98 2.66 1.33.95.35 1.83.65 2.66.9l4.75 1.43c2.47.76 4.78 1.67 6.93 2.71 2.15 1.05 4.02 2.33 5.6 3.85s2.83 3.34 3.75 5.47c.91 2.13 1.37 4.64 1.37 7.56 0 3.55-.53 7.05-1.57 10.5-1.05 3.46-3 6.38-5.85 8.79-2.85 2.41-6.05 4.14-9.595 5.18-3.546 1.05-7.124 1.57-10.73 1.57-4.56 0-8.98-.71-13.255-2.13-4.275-1.424-8.25-3.435-11.923-6.033l7.98-15.01c2.344 2.03 4.876 3.77 7.6 5.23 2.723 1.457 5.7 2.185 8.93 2.185 1.076 0 2.15-.14 3.23-.42 1.075-.284 2.04-.71 2.897-1.28.855-.57 1.552-1.314 2.09-2.23.54-.92.81-2.01.81-3.28 0-1.33-.4-2.44-1.19-3.32-.79-.89-1.774-1.65-2.945-2.28-1.17-.63-2.407-1.14-3.706-1.52-1.3-.38-2.457-.73-3.47-1.05-2.914-.826-5.56-1.696-7.933-2.614-2.377-.92-4.42-2.11-6.13-3.566s-3.02-3.294-3.94-5.51c-.92-2.218-1.38-5.068-1.38-8.55 0-3.61.62-6.904 1.853-9.88 1.234-2.977 2.944-5.51 5.13-7.6s4.78-3.706 7.79-4.846c3.01-1.14 6.317-1.71 9.927-1.71 1.78 0 3.66.142 5.66.426 1.996.287 3.96.68 5.89 1.19 1.93.507 3.83 1.125 5.7 1.85 1.87.73 3.595 1.536 5.178 2.42z"/>
</svg>